<?xml version="1.0" standalone="no"?>
<!DOCTYPE svg PUBLIC "-//W3C//DTD SVG 20010904//EN"
 "http://www.w3.org/TR/2001/REC-SVG-20010904/DTD/svg10.dtd">
<svg version="1.0" xmlns="http://www.w3.org/2000/svg"
 width="1500.000000pt" height="1125.000000pt" viewBox="0 0 1500.000000 1125.000000"
 preserveAspectRatio="xMidYMid meet">
<metadata>
Created by potrace 1.16, written by Peter Selinger 2001-2019
</metadata>
<g transform="translate(0.000000,1125.000000) scale(0.100000,-0.100000)"
fill="#000000" stroke="none">
<path d="M0 5625 l0 -5625 7500 0 7500 0 0 5625 0 5625 -7500 0 -7500 0 0
-5625z m8301 3034 c4 -79 7 -307 8 -506 l1 -363 -25 -16 c-25 -16 -28 -14
-203 86 -97 56 -300 173 -449 259 -150 86 -273 158 -273 161 1 9 915 529 925
526 6 -1 13 -65 16 -147z m3542 -393 c53 -23 69 -43 301 -400 64 -98 116 -182
116 -187 0 -16 -16 -10 -36 13 -10 11 -46 39 -79 60 -56 37 -59 40 -56 76 3
51 -37 97 -77 88 -15 -4 -32 -8 -38 -9 -6 -1 -44 46 -84 106 -40 59 -77 107
-81 107 -5 0 -9 -9 -9 -20 0 -19 -65 -198 -75 -208 -8 -8 -115 43 -115 55 0 6
14 41 30 78 17 37 30 73 30 80 0 8 -69 -8 -217 -52 -299 -89 -288 -85 -291
-108 -3 -25 293 -665 315 -682 9 -7 32 -13 50 -13 18 0 124 -16 236 -35 l203
-35 126 35 c136 38 243 82 466 194 l143 72 -2 42 -3 42 39 -3 c57 -4 142 -28
171 -47 26 -17 26 -20 5 -80 -6 -16 -13 -46 -16 -65 -4 -28 -13 -40 -46 -58
-22 -13 -44 -33 -49 -45 -8 -21 -61 -324 -130 -745 -16 -100 -37 -197 -46
-214 -24 -47 -48 -68 -174 -153 -63 -43 -146 -101 -185 -129 -164 -121 -213
-140 -312 -118 -26 6 -93 18 -148 27 -55 9 -208 36 -340 61 -132 24 -256 46
-275 49 -173 26 -674 140 -747 170 -22 9 -39 26 -47 47 -17 41 -72 248 -81
303 -3 22 -16 94 -30 160 -37 185 -55 286 -61 335 -16 145 -36 200 -72 200
-26 0 -52 31 -52 62 0 33 -24 95 -46 119 -10 11 -12 19 -5 23 8 5 217 93 353
149 40 16 43 4 12 -48 -21 -37 -38 -51 -83 -71 -68 -30 -61 -37 59 -53 47 -6
127 -19 179 -28 79 -13 94 -14 102 -2 5 8 64 153 131 323 89 223 131 318 153
342 24 25 53 39 130 62 105 31 364 105 450 127 70 18 267 19 308 1z m705 -316
c2 -33 11 -53 32 -75 56 -58 70 -106 70 -247 l0 -128 -36 -15 c-20 -8 -40 -15
-45 -15 -5 0 -9 62 -9 138 0 164 -8 186 -64 190 -62 5 -76 -15 -76 -115 0 -89
-9 -102 -45 -63 -10 11 -26 22 -36 25 -15 5 -19 16 -19 57 0 74 20 128 62 169
31 30 38 44 38 76 0 22 3 43 7 47 4 4 32 6 63 4 l55 -3 3 -45z m-910 -74 c27
-14 65 -43 86 -66 l37 -42 -46 -49 c-26 -27 -58 -75 -72 -106 -22 -48 -25 -64
-20 -122 4 -36 9 -76 13 -88 5 -19 0 -23 -36 -33 -22 -6 -60 -10 -82 -8 l-41
3 -102 217 -103 216 32 30 c58 55 102 71 199 72 73 0 95 -4 135 -24z m412 -11
c11 -13 9 -20 -13 -43 -28 -29 -48 -92 -29 -92 6 0 14 5 17 10 10 16 57 12 95
-9 49 -26 50 -47 2 -54 -60 -10 -158 -64 -198 -110 -63 -74 -86 -130 -87 -218
-1 -45 -6 -79 -12 -79 -25 0 -78 44 -105 87 -70 110 -67 206 11 304 53 67 148
101 179 64 19 -23 30 -18 30 16 0 34 11 58 47 107 26 35 44 40 63 17z m-1340
-242 c-34 -87 -66 -162 -70 -167 -9 -10 -181 12 -203 26 -18 11 18 73 72 125
50 49 98 63 139 42 15 -7 31 -15 36 -17 5 -3 6 7 2 22 -4 16 -1 37 8 54 18 34
65 86 73 79 3 -3 -23 -77 -57 -164z m-4045 9 c88 -49 207 -116 265 -148 58
-32 174 -97 259 -145 149 -85 152 -88 130 -102 -119 -75 -2395 -1327 -2406
-1323 -19 8 -19 948 0 964 7 6 355 207 772 446 l760 435 30 -19 c16 -10 102
-58 190 -108z m5647 -33 c22 -11 63 -43 89 -69 39 -39 49 -56 49 -82 -1 -33
-2 -34 -143 -99 -161 -76 -275 -111 -360 -113 -70 -1 -77 7 -77 86 0 117 66
224 170 276 63 31 212 32 272 1z m-4637 -1239 l0 -215 -220 0 -220 0 -3 205
c-1 112 0 210 3 217 3 11 51 13 222 11 l218 -3 0 -215z m-3575 -930 c47 -5
127 -24 178 -41 l92 -32 23 21 c17 16 36 22 70 22 l47 0 0 -157 c0 -87 3 -195
7 -240 l6 -83 -52 0 c-40 0 -53 4 -58 18 -85 248 -180 358 -328 383 -60 10
-78 10 -126 -4 -104 -31 -177 -119 -222 -270 -19 -63 -21 -96 -21 -272 0 -191
1 -204 27 -282 35 -104 96 -189 163 -225 95 -51 235 -55 338 -9 56 24 153 115
201 187 l36 53 44 -27 c50 -30 50 -30 2 -110 -41 -69 -130 -160 -190 -195 -98
-58 -174 -79 -297 -84 -149 -7 -244 12 -366 72 -154 75 -267 212 -319 385 -25
85 -31 249 -12 350 34 176 146 344 290 434 105 65 199 94 372 115 6 0 48 -4
95 -9z m1293 -22 c64 -165 408 -1013 432 -1064 38 -84 79 -120 155 -134 70
-13 177 3 207 32 l23 21 0 483 c0 265 -3 490 -6 499 -9 21 -47 40 -116 55
l-58 13 0 44 0 44 448 -4 c476 -4 503 -7 604 -58 50 -26 104 -81 124 -127 20
-47 20 -156 1 -202 -34 -79 -107 -135 -234 -180 l-73 -26 62 -13 c141 -29 261
-110 308 -206 32 -66 30 -190 -5 -261 -47 -95 -144 -156 -306 -191 -77 -16
-148 -18 -859 -18 l-775 0 -3 42 c-3 41 -3 42 35 48 85 14 135 28 139 40 3 7
-21 76 -52 154 l-58 141 -212 0 -212 0 -12 -32 c-44 -122 -70 -206 -70 -230 0
-34 30 -51 113 -67 72 -13 77 -16 77 -46 0 -57 10 -55 -276 -55 l-264 0 -6 24
c-12 48 -2 60 62 76 71 19 115 47 142 93 11 17 118 268 237 557 119 289 221
533 226 543 8 14 24 17 103 17 66 0 95 -4 99 -12z m4650 0 c64 -165 408 -1013
432 -1064 38 -84 79 -120 154 -134 84 -16 203 5 221 40 11 20 14 967 4 995 -9
21 -47 40 -116 55 l-58 13 0 44 0 43 408 0 c487 0 560 -9 682 -82 80 -48 114
-108 118 -208 5 -90 -7 -139 -47 -202 -36 -56 -100 -105 -182 -137 -39 -16
-58 -29 -55 -37 10 -27 302 -391 361 -450 40 -41 72 -64 93 -68 18 -3 46 -9
62 -12 28 -5 30 -9 30 -50 l0 -44 -248 0 -248 0 -79 117 c-169 250 -329 453
-356 453 -19 0 -20 -7 -17 -211 4 -249 -4 -234 141 -264 25 -5 27 -9 27 -50
l0 -45 -697 2 -698 3 -3 42 c-3 41 -3 42 35 48 85 14 135 28 139 40 3 7 -21
76 -52 154 l-58 141 -212 0 -212 0 -12 -32 c-44 -122 -70 -206 -70 -230 0 -34
30 -51 113 -67 32 -6 62 -13 68 -16 11 -7 12 -55 1 -72 -6 -10 -141 -12 -623
-10 l-614 2 -3 41 c-3 45 8 54 70 54 47 0 105 29 117 58 8 19 10 166 9 477
l-3 450 -147 -375 c-81 -206 -174 -446 -208 -533 l-62 -158 -61 3 -62 3 -195
530 -195 530 -3 -395 c-1 -256 2 -413 9 -448 17 -85 48 -111 167 -142 43 -11
43 -11 40 -53 l-3 -42 -277 -3 -278 -2 0 44 c0 48 0 48 75 61 56 10 92 33 112
75 16 31 18 77 21 455 2 272 0 433 -7 456 -16 52 -52 80 -128 99 l-68 16 0 40
0 39 301 3 302 2 147 -397 c82 -219 151 -401 154 -405 7 -8 253 614 271 682 5
19 14 54 20 78 l11 42 287 -2 287 -3 0 -40 0 -39 -65 -13 c-47 -9 -71 -20 -87
-39 l-23 -25 0 -474 c0 -336 3 -481 11 -499 27 -59 192 -81 282 -37 26 13 59
37 72 55 13 18 124 273 246 566 121 294 225 543 230 553 8 14 24 17 103 17 66
0 95 -4 99 -12z m-7575 -50 l-3 -41 -64 -13 c-109 -22 -101 12 -101 -439 0
-364 1 -398 20 -457 35 -113 117 -174 248 -185 139 -11 250 37 308 134 51 85
56 133 52 488 -3 296 -4 323 -23 360 -25 50 -66 78 -139 94 l-56 12 0 45 0 44
283 -2 282 -3 0 -39 0 -40 -65 -16 c-148 -36 -143 -22 -151 -485 -6 -381 -9
-406 -51 -489 -26 -52 -99 -128 -157 -166 -82 -52 -153 -71 -287 -77 -307 -14
-517 100 -585 316 -17 57 -19 96 -20 434 -1 205 -4 383 -8 397 -9 32 -61 66
-114 75 -23 4 -45 13 -49 19 -10 14 -10 60 -1 69 3 4 159 7 345 7 l339 0 -3
-42z m10867 -148 l0 -185 -41 -3 -41 -3 -43 86 c-23 47 -61 106 -84 131 -46
51 -82 63 -183 64 l-63 0 0 -509 c0 -493 1 -509 20 -534 18 -23 38 -30 148
-53 19 -4 22 -11 22 -49 l0 -45 -360 0 -360 0 0 44 c0 49 -3 47 102 61 34 4
53 13 68 32 19 25 20 38 20 541 l0 515 -91 -5 c-68 -4 -98 -10 -118 -25 -35
-26 -116 -147 -138 -205 -17 -47 -18 -48 -60 -48 l-43 0 0 190 0 190 623 -2
622 -3 0 -185z"/>
<path d="M10980 7816 c-6 -8 -47 -104 -91 -213 -44 -109 -82 -204 -85 -210 -8
-17 25 -28 131 -43 50 -7 153 -23 229 -36 77 -13 142 -22 144 -19 5 4 -225
502 -241 523 -13 17 -72 15 -87 -2z m81 -116 c11 -6 36 -46 55 -88 84 -181
115 -254 111 -258 -3 -3 -45 2 -93 11 -49 8 -125 22 -168 30 -43 7 -83 18 -87
22 -12 12 87 254 112 276 24 20 42 21 70 7z"/>
<path d="M6550 5075 l0 -228 78 5 c130 7 200 64 224 180 9 44 9 68 0 108 -25
107 -84 149 -219 158 l-83 5 0 -228z"/>
<path d="M5164 5045 c-101 -256 -153 -390 -150 -392 2 -2 75 -2 164 -1 l160 3
-74 185 c-40 102 -78 194 -83 205 l-9 20 -8 -20z"/>
<path d="M6552 4503 l3 -237 34 -23 c44 -30 146 -32 208 -4 82 38 130 144 121
265 -13 153 -119 236 -301 236 l-67 0 2 -237z"/>
<path d="M11200 5045 l0 -258 78 5 c166 10 242 96 242 272 -1 152 -70 220
-241 233 l-79 6 0 -258z"/>
<path d="M9814 5045 c-101 -256 -153 -390 -150 -392 2 -2 75 -2 164 -1 l160 3
-74 185 c-40 102 -78 194 -83 205 l-9 20 -8 -20z"/>
</g>
</svg>
